<?xml version="1.0" standalone="no"?>
<!DOCTYPE svg PUBLIC "-//W3C//DTD SVG 20010904//EN"
 "http://www.w3.org/TR/2001/REC-SVG-20010904/DTD/svg10.dtd">
<svg version="1.0" xmlns="http://www.w3.org/2000/svg"
 width="550.000000pt" height="712.000000pt" viewBox="0 0 550.000000 712.000000"
 preserveAspectRatio="xMidYMid meet">

<g transform="translate(0.000000,712.000000) scale(0.100000,-0.100000)"
fill="#000000" stroke="none">
<path d="M2513 7090 c-99 -46 -204 -156 -189 -196 13 -33 67 -15 192 66 24 15
54 8 54 -14 0 -8 -27 -50 -60 -95 -95 -128 -114 -172 -115 -262 0 -67 3 -80
29 -117 64 -92 173 -137 336 -137 94 0 111 3 168 29 177 81 237 287 127 432
-33 43 -115 84 -169 84 -94 0 -176 -79 -176 -169 0 -77 43 -121 118 -121 l26
0 -30 -31 c-32 -34 -80 -59 -116 -59 -12 0 -41 9 -64 21 -48 23 -84 82 -84
137 0 50 36 133 95 218 30 43 58 94 61 112 9 48 -17 99 -61 118 -49 20 -72 18
-142 -16z"/>
<path d="M3368 6460 c-200 -111 -341 -167 -501 -201 -86 -19 -132 -22 -292
-21 -243 1 -295 -12 -265 -68 27 -51 327 -97 523 -80 278 24 596 135 691 241
43 47 49 100 15 143 -31 39 -80 35 -171 -14z"/>
<path d="M1608 6396 c-116 -34 -202 -94 -275 -193 -96 -130 -133 -233 -133
-371 0 -271 159 -577 507 -980 146 -169 203 -303 203 -481 0 -113 -14 -192
-55 -320 -20 -63 -28 -98 -19 -86 35 45 125 245 140 310 21 91 21 241 -1 325
-26 102 -96 235 -185 350 -273 355 -380 573 -381 780 -1 147 34 242 131 358
70 84 134 115 249 120 113 5 179 -18 259 -93 98 -91 142 -209 142 -382 0 -110
-14 -158 -63 -211 l-21 -22 -20 37 c-28 49 -65 74 -118 80 -90 10 -159 -49
-165 -141 -8 -108 65 -171 197 -171 63 0 85 5 135 29 154 76 235 234 235 465
0 178 -51 310 -165 423 -75 75 -147 120 -247 155 -89 32 -271 42 -350 19z"/>
<path d="M3450 6092 c-290 -146 -408 -175 -704 -174 -223 1 -270 -8 -264 -50
11 -78 392 -127 649 -84 237 39 478 134 568 224 41 42 43 46 38 90 -6 54 -33
82 -81 82 -19 0 -97 -33 -206 -88z"/>
<path d="M3729 5815 c-326 -181 -492 -227 -819 -226 -208 1 -242 -6 -248 -46
-4 -30 27 -48 128 -73 108 -28 360 -38 482 -21 266 39 518 138 611 240 40 44
43 60 26 110 -22 63 -85 68 -180 16z"/>
<path d="M4290 5534 c-154 -40 -380 -207 -380 -279 0 -36 20 -31 65 16 134
136 380 163 568 61 111 -60 187 -186 172 -285 -14 -94 -61 -164 -199 -303 -72
-71 -196 -182 -276 -245 -80 -63 -207 -164 -282 -224 -76 -59 -136 -110 -134
-112 7 -7 354 172 474 244 322 194 514 379 581 559 25 64 29 166 11 235 -29
109 -125 228 -228 282 -124 66 -251 83 -372 51z"/>
<path d="M3630 5410 c-11 -11 -20 -33 -20 -49 0 -57 -6 -61 -89 -61 -168 -1
-239 -49 -201 -140 10 -24 8 -30 -24 -62 -38 -38 -43 -61 -24 -103 23 -51 138
-95 246 -95 l54 0 -7 -102 c-35 -523 -194 -953 -529 -1434 -432 -620 -565
-1036 -461 -1439 14 -54 29 -104 33 -111 4 -7 6 66 3 163 -2 107 2 212 9 267
33 243 137 477 330 741 512 702 751 1212 811 1735 13 119 7 430 -11 525 -31
166 -68 217 -120 165z m-20 -226 l0 -44 -85 0 c-78 0 -86 2 -100 24 -18 26
-11 54 16 64 9 4 52 6 93 4 l76 -4 0 -44z m-71 -120 l61 -7 0 -43 0 -44 -105
0 c-92 0 -108 3 -125 20 -24 24 -24 29 -4 58 17 24 56 28 173 16z"/>
<path d="M2758 5031 c241 -140 341 -239 392 -392 17 -50 21 -81 18 -160 -2
-54 0 -95 3 -91 10 11 37 102 44 149 7 47 -9 142 -32 188 -46 90 -135 175
-262 249 -62 36 -239 116 -257 116 -5 0 37 -27 94 -59z"/>
<path d="M1048 4981 c-148 -48 -257 -154 -344 -337 -81 -169 -118 -352 -103
-517 21 -242 117 -410 276 -485 52 -24 69 -27 163 -26 90 0 115 4 174 27 129
51 252 170 321 312 50 101 65 172 65 301 l0 112 -36 17 c-93 44 -239 -52 -366
-238 -72 -106 -93 -172 -63 -197 28 -23 77 0 152 73 49 47 77 68 88 63 20 -7
13 -22 -65 -125 -121 -162 -227 -206 -347 -146 -44 22 -56 35 -86 93 -53 101
-71 172 -71 282 1 115 20 192 79 316 68 145 115 208 179 239 50 24 64 27 147
24 84 -4 92 -6 114 -31 32 -37 41 -105 27 -204 -17 -117 -17 -124 13 -124 35
0 68 39 116 135 67 136 73 232 21 329 -48 88 -139 126 -302 125 -63 0 -114 -6
-152 -18z"/>
<path d="M2580 4909 c0 -27 22 -82 52 -126 20 -31 28 -54 28 -87 0 -69 35
-149 88 -204 63 -64 129 -95 215 -100 53 -3 67 -8 68 -21 0 -9 9 11 20 44 25
75 22 163 -8 203 -21 28 -114 94 -249 175 -95 57 -72 37 101 -92 150 -111 163
-132 150 -236 l-7 -60 -25 61 c-34 85 -81 137 -177 191 -94 54 -202 157 -234
223 -11 25 -21 38 -22 29z m205 -269 c38 -26 45 -35 38 -53 -13 -40 -5 -81 22
-104 28 -25 83 -31 103 -11 14 14 29 2 55 -41 l18 -31 -49 0 c-98 0 -228 92
-273 195 -11 24 -22 65 -26 92 l-6 48 35 -31 c20 -18 57 -46 83 -64z"/>
<path d="M2310 4094 c-58 -23 -128 -48 -157 -55 l-51 -12 55 -53 c30 -30 58
-54 61 -54 4 0 45 14 92 31 l85 32 -3 47 c-3 30 2 59 12 79 9 17 15 31 14 30
-2 -1 -50 -21 -108 -45z"/>
<path d="M3820 4019 c-78 -11 -158 -43 -202 -80 -21 -17 -38 -34 -38 -37 0 -4
51 -9 113 -10 206 -6 327 -42 395 -116 49 -53 67 -103 66 -187 -3 -160 -93
-289 -239 -340 -72 -25 -173 -28 -381 -11 -164 14 -258 8 -290 -19 -23 -19
-16 -25 38 -38 164 -37 351 -216 458 -436 112 -230 134 -479 65 -720 -35 -120
-78 -197 -150 -270 -114 -115 -279 -188 -459 -203 -433 -35 -828 174 -1001
531 -86 179 -106 336 -86 702 16 292 51 571 106 833 l13 67 -34 -40 c-336
-388 -444 -761 -368 -1275 19 -129 68 -280 134 -412 172 -343 439 -563 787
-650 119 -30 394 -32 523 -5 125 27 280 81 381 133 106 55 258 192 351 318
242 325 280 728 107 1131 -41 95 -41 97 -21 111 113 79 218 201 280 323 l47
94 0 126 c0 116 -2 131 -28 191 -15 36 -44 90 -65 120 -32 47 -49 61 -122 98
-128 64 -263 89 -380 71z"/>
<path d="M4533 3943 c-52 -49 -67 -107 -60 -236 10 -220 104 -385 266 -464 53
-26 64 -28 191 -28 159 0 235 17 352 77 101 52 218 158 218 198 0 36 -35 80
-65 80 -13 0 -75 -27 -138 -60 -241 -127 -385 -147 -481 -69 -65 55 -96 146
-96 288 0 145 -49 241 -123 241 -24 0 -44 -8 -64 -27z"/>
<path d="M2375 3933 c-22 -15 -66 -37 -98 -48 l-59 -22 50 -59 c64 -77 152
-156 207 -185 36 -19 46 -21 59 -10 29 25 18 74 -50 215 -36 75 -66 136 -67
136 -1 0 -20 -12 -42 -27z"/>
<path d="M5030 3907 c-19 -6 -53 -30 -76 -52 -129 -130 -39 -345 144 -345 66
0 107 18 151 63 88 93 62 260 -50 317 -49 26 -122 33 -169 17z"/>
<path d="M815 3570 c-153 -24 -336 -102 -450 -193 -167 -134 -265 -313 -311
-572 -25 -137 -25 -406 -1 -528 90 -448 399 -800 927 -1054 139 -67 254 -105
395 -132 299 -58 606 -50 920 24 96 23 161 43 140 44 -5 0 -50 -6 -100 -15
-208 -35 -488 -29 -702 16 -638 133 -1185 642 -1315 1223 -95 425 134 845 507
933 84 19 256 22 340 4 76 -16 155 -68 261 -174 110 -110 156 -201 162 -320 7
-133 -26 -221 -132 -355 l-51 -65 65 35 c77 40 181 135 217 196 83 142 84 326
3 501 -41 89 -124 204 -187 262 -64 59 -189 123 -293 151 -87 23 -300 33 -395
19z"/>
<path d="M4428 3100 c-83 -15 -144 -40 -184 -75 -29 -24 -35 -35 -24 -38 220
-70 357 -153 520 -317 115 -114 166 -186 235 -325 107 -219 120 -407 40 -572
-54 -112 -101 -166 -201 -232 -330 -219 -804 -345 -1414 -376 -641 -32 -1034
-136 -1174 -308 -50 -62 -66 -99 -78 -186 -28 -191 57 -374 240 -512 36 -27
67 -47 69 -45 2 2 -21 43 -52 92 -186 295 -202 465 -56 596 145 130 405 176
1191 208 728 30 1144 121 1434 314 245 163 388 405 427 721 68 546 -315 1028
-841 1059 -47 3 -106 1 -132 -4z"/>
<path d="M2458 1163 c7 -3 16 -2 19 1 4 3 -2 6 -13 5 -11 0 -14 -3 -6 -6z"/>
</g>
</svg>
